<?xml version="1.0" encoding="utf-8"?>
<!-- Generator: Adobe Illustrator 15.1.0, SVG Export Plug-In . SVG Version: 6.00 Build 0)  -->
<!DOCTYPE svg PUBLIC "-//W3C//DTD SVG 1.1//EN" "http://www.w3.org/Graphics/SVG/1.1/DTD/svg11.dtd">
<svg version="1.1" id="Layer_1" xmlns="http://www.w3.org/2000/svg" xmlns:xlink="http://www.w3.org/1999/xlink" x="0px" y="0px"
	 width="447.5px" height="331.667px" viewBox="0 0 447.5 331.667" enable-background="new 0 0 447.5 331.667" xml:space="preserve">
<g>
	<path fill="#B5B4AA" d="M126.809,40.361c2.652,0,5.296,0.144,7.895,0.403c4.866-3.88,11.032-6.209,17.735-6.209
		c0.296,0,0.582,0.018,0.878,0.018c3.45,0.107,6.748,0.825,9.777,2.062c5.501,2.222,10.152,6.093,13.307,11.021
		c1.694,2.616,2.939,5.52,3.692,8.621c0.529,2.177,0.834,4.436,0.834,6.766c0,15.727-12.761,28.479-28.487,28.479
		c-11.533,0-21.453-6.837-25.934-16.695c-0.941,0-1.882,0.036-2.832,0.099h-0.009c-5.063,0.35-9.875,1.479-14.347,3.253
		c6.255,17.797,23.218,30.575,43.122,30.575c25.207,0,45.71-20.503,45.71-45.71c0-6.864-1.524-13.379-4.247-19.221
		c-1.228-2.635-2.698-5.126-4.383-7.457c1.273-0.932,2.563-1.836,3.88-2.697c15.871-10.413,34.707-16.444,55.048-16.444
		c14.105,0,27.502,2.903,39.707,8.146c18.299,7.858,33.908,21.022,44.939,37.61c4.051,6.093,7.465,12.635,10.189,19.554
		c-2.742,0.95-5.367,2.15-7.85,3.575c-13.701,7.895-22.949,22.699-22.949,39.626c0,25.208,20.502,45.718,45.709,45.718
		c14.76,0,27.896-7.052,36.258-17.939c-3.674-2.688-7.645-4.964-11.818-6.782c-1.229-0.521-2.492-1.005-3.756-1.435
		c-5.18,5.484-12.537,8.924-20.684,8.924c-15.734,0-28.486-12.759-28.486-28.486c0-8.988,4.168-16.963,10.646-22.188
		c2.355-1.89,4.99-3.431,7.885-4.507c3.102-1.147,6.453-1.792,9.955-1.792c2.572,0,5.074,0.34,7.447,0.986
		c3.459,0.932,6.668,2.527,9.473,4.605c2.76,2.044,5.143,4.588,7.016,7.493c7.438,1.881,14.555,4.642,21.193,8.171
		c-2.832-17.743-15.906-32.116-32.967-36.83c-3.092-0.842-6.301-1.398-9.598-1.577c-0.727-2.043-1.488-4.077-2.322-6.066
		c-9.041-21.748-24.158-40.235-43.201-53.31C296.192,7.653,273.163,0,248.448,0c-23.774,0-45.943,7.08-64.502,19.267
		c-2.456,1.612-4.857,3.315-7.188,5.108c-2.661-1.685-5.501-3.101-8.495-4.212c-4.938-1.828-10.27-2.832-15.825-2.832
		c-17.52,0-32.752,9.911-40.424,24.41c3.056-0.573,6.165-0.977,9.32-1.191C123.171,40.423,124.99,40.361,126.809,40.361z"/>
	<path fill="#B5B4AA" d="M57.521,97.443c-9.014,2.097-15.727,10.162-15.727,19.804c0,0.179,0.027,0.359,0.027,0.538
		c0.161,6.308,3.198,11.909,7.859,15.529c3.44,2.67,7.76,4.275,12.465,4.275c11.228,0,20.341-9.114,20.341-20.342
		c0-6.551-3.1-12.366-7.922-16.094c1.084-2.527,2.349-4.983,3.773-7.331c0.734-1.218,1.514-2.411,2.33-3.566l0,0
		c2.527-3.558,5.439-6.811,8.692-9.714c4.14-3.701,8.836-6.801,13.953-9.167c1.272-0.591,2.581-1.12,3.907-1.612
		c4.982-1.873,10.306-3.056,15.871-3.432l0,0c0.357-0.027,0.699-0.036,1.058-0.054c0.878-0.044,1.773-0.072,2.661-0.072
		c1.882,0,3.746,0.108,5.601,0.296c1.64,9.588,9.965,16.892,20.028,16.892c11.228,0,20.351-9.105,20.351-20.351
		c0-3.235-0.79-6.299-2.133-9.023c-2.644-5.324-7.554-9.32-13.459-10.736c-1.533-0.376-3.119-0.592-4.758-0.592
		c-6.139,0-11.641,2.743-15.368,7.043c-3.074-0.447-6.22-0.699-9.409-0.734c-0.287,0-0.574-0.018-0.852-0.018
		c-1.622,0-3.244,0.054-4.893,0.161c-4.695,0.323-9.265,1.085-13.674,2.241c-4.221,1.102-8.289,2.562-12.169,4.355l0,0
		c-8.917,4.14-16.82,9.965-23.361,17.044c-2.188,2.366-4.221,4.866-6.085,7.5c-1.926,2.706-3.666,5.547-5.225,8.495
		C59.923,91.574,58.633,94.468,57.521,97.443z"/>
	<path fill="#B5B4AA" d="M232.514,292.865c3.262,6.92,10.271,11.721,18.416,11.721c8.154,0,15.162-4.801,18.416-11.721
		c1.227-2.615,1.936-5.529,1.936-8.629c0-3.066-0.709-5.969-1.928-8.604c-3.244-6.918-10.26-11.729-18.424-11.729
		c-8.145,0-15.162,4.811-18.416,11.729h-8.745h-17.725H94.289c-10.646-0.018-20.745-2.223-29.939-6.164
		c-13.808-5.979-25.601-15.908-33.936-28.443c-8.325-12.51-13.191-27.574-13.191-43.865c0-17.141,5.386-32.922,14.535-45.798
		c2.142,1.909,4.48,3.611,6.945,5.099c6.855,4.122,14.876,6.487,23.443,6.487c25.198,0,45.702-20.502,45.702-45.701
		c0-11.9-4.57-22.726-12.053-30.88c-3.038,2.616-5.771,5.591-8.11,8.889l0,0c-1.065,1.506-2.043,3.065-2.938,4.678
		c3.683,4.793,5.878,10.789,5.878,17.312c0,15.727-12.752,28.478-28.479,28.478c-4.042,0-7.886-0.824-11.372-2.346
		c-2.778-1.219-5.332-2.868-7.563-4.84c-4.391-3.916-7.554-9.167-8.872-15.126c-0.448-1.972-0.681-4.05-0.681-6.166
		c0-1.542,0.125-3.029,0.358-4.489c1.532-9.732,8.001-17.825,16.766-21.632c2.375-5.601,5.332-10.924,8.818-15.834
		c0.914-1.273,1.855-2.528,2.831-3.746c-0.089,0-0.188-0.017-0.286-0.017c-25.208,0-45.72,20.512-45.72,45.719
		c0,3.584,0.412,7.079,1.21,10.431c0.761,3.289,1.881,6.443,3.324,9.409c-1.03,1.29-2.043,2.618-3.011,3.961
		C6.641,156.801,0,176.236,0,197.16c0,13.154,2.635,25.729,7.393,37.18c7.151,17.143,19.078,31.75,34.115,42.082
		c15.038,10.324,33.228,16.408,52.745,16.443h0.009h111.782h17.734H232.514z"/>
	<path fill="#B5B4AA" d="M439.069,169.973c-6.596-15.824-17.582-29.265-31.445-38.8c-1.244-0.86-2.525-1.684-3.824-2.481
		c-5.504-3.361-11.4-6.139-17.619-8.218c-2.992-1.003-6.057-1.846-9.184-2.527c-1.91-4.624-5.484-8.361-9.975-10.53
		c-2.68-1.29-5.664-2.033-8.828-2.033c-3.055,0-5.939,0.699-8.539,1.899c-6.971,3.227-11.811,10.269-11.811,18.451
		c0,11.237,9.104,20.351,20.35,20.351c7.727,0,14.455-4.319,17.896-10.664c2.68,0.689,5.287,1.55,7.822,2.562
		c0.709,0.27,1.426,0.556,2.125,0.843c4.596,1.989,8.961,4.479,13.012,7.383c6.918,4.965,12.922,11.183,17.672,18.334
		c7.535,11.333,11.936,24.964,11.936,39.714v0.162v0.018c0,9.84-1.945,19.168-5.467,27.68
		c-5.287,12.752-14.141,23.613-25.244,31.283c-11.129,7.682-24.455,12.18-38.898,12.232h-63.223
		c-0.572-2.975-1.441-5.861-2.57-8.611c-6.811-16.686-23.209-28.486-42.324-28.486s-35.504,11.801-42.324,28.486h19.652
		c5.207-6.846,13.424-11.273,22.672-11.273c9.258,0,17.465,4.428,22.662,11.273c1.953,2.572,3.504,5.477,4.498,8.611
		c0.861,2.725,1.328,5.609,1.328,8.604c0,3.012-0.477,5.904-1.336,8.629c-0.994,3.154-2.545,6.039-4.498,8.621
		c-5.199,6.828-13.396,11.236-22.654,11.236c-9.238,0-17.447-4.408-22.654-11.236h-19.661c6.819,16.695,23.209,28.469,42.315,28.469
		s35.504-11.773,42.314-28.469c1.129-2.76,2.008-5.646,2.57-8.621h63.295h0.008c12.008-0.035,23.469-2.58,33.873-7.088
		c15.592-6.773,28.811-17.994,38.139-32.07c9.328-14.08,14.76-31.07,14.76-49.27v-0.055v-0.125
		C445.889,192.125,443.469,180.52,439.069,169.973z"/>
</g>
</svg>
